<svg width="15" height="25" viewBox="0 0 15 25" fill="none" xmlns="http://www.w3.org/2000/svg">
<path d="M1.09065 1.04548C1.10919 4.84352 1.02923 20.1169 1.00818 23.9207M1.00616 1.10541C1.02978 4.91091 1.08866 20.1457 1.09694 23.9457L1.00616 1.10541ZM1.08031 1.07449C5.74908 4.96184 10.3659 9.0831 13.882 12.4243L1.08031 1.07449ZM1 0.999999C5.68527 4.96598 10.3546 9.10373 14 12.4258L1 0.999999ZM13.9571 12.3209C10.3365 15.9579 6.25031 19.2835 1.10457 24L13.9571 12.3209ZM13.8929 12.4956C10.8839 14.9454 7.96989 17.6249 1.16786 23.8145L13.8929 12.4956Z" stroke="#575757" stroke-width="1.5"/>
</svg>
