<svg width="22" height="22" viewBox="0 0 22 22" fill="none" xmlns="http://www.w3.org/2000/svg">
<path d="M1.19422 20.9249C0.95964 14.6399 0.958337 8.29677 1.08027 1.19292M1.26959 1.1919C8.18167 0.957754 15.255 0.965898 20.8158 1.1473L1.26959 1.1919ZM1.14415 1.18934C8.1364 1.01049 15.264 0.99249 20.9074 1.05771L1.14415 1.18934ZM20.7844 1C21.1387 6.93411 20.8693 12.9576 20.9841 21L20.7844 1ZM20.8855 1.20054C20.6877 5.63682 20.7601 10.1987 20.8732 20.7908L20.8855 1.20054ZM21 20.8176C15.3413 20.6596 10.0213 20.8983 1.10683 20.9165L21 20.8176ZM20.9423 20.9181C13.958 20.7496 6.87358 20.698 1.11147 20.9226L20.9423 20.9181ZM1.21495 20.7437C1.0183 15.7015 0.943246 10.3037 1.28247 1.03357L1.21495 20.7437Z" stroke="black" stroke-width="0.880362"/>
</svg>
